PathFileType	4	(x/y/z)	A01_SLOW_T0029.trc
DataRate	CameraRate	NumFrames	NumMarkers	Units	OrigDataRate	OrigDataStartFrame	OrigNumFrames
240	240	8	48	mm	240	1	357
Frame#	Time	TOP_HEAD			R_AC			L_AC			R_ASIS			L_ASIS			R_PSIS			L_PSIS			SACRAL			L_IC			R_IC			L_GT			R_GT			R_LAT_KNEE			R_MED_KNEE			L_MED_KNEE			L_LAT_KNEE			R_TOE			L_TOE			R_1ST_MET			L_1ST_MET			L_5TH_MET			R_5TH_MET			R_LAT_ANK			R_MED_ANK			L_MED_ANK			L_LAT_ANK			L_HEEL_SUP			R_HEEL_SUP			L_HEEL_LAT			R_HEEL_LAT			L_HEEL_MED			R_HEEL_MED			R_LL_PROX_POST			R_LL_PROX_ANT			R_LL_DIST_ANT			R_LL_DIST_POST			R_THIGH_PROX_POST			R_THIGH_PROX_ANT			R_THIGH_DIST_ANT			R_THIGH_DIST_POST			L_PROS_PROX_ANT			L_PROS_PROX_POST			L_PROS_DIST_POST			L_PROS_DIST_ANT			L_THIGH_PROX_ANT			L_THIGH_PROX_POST			L_THIGH_DIST_POST			L_THIGH_DIST_ANT			
		X1	Y1	Z1	X2	Y2	Z2	X3	Y3	Z3	X4	Y4	Z4	X5	Y5	Z5	X6	Y6	Z6	X7	Y7	Z7	X8	Y8	Z8	X9	Y9	Z9	X10	Y10	Z10	X11	Y11	Z11	X12	Y12	Z12	X13	Y13	Z13	X14	Y14	Z14	X15	Y15	Z15	X16	Y16	Z16	X17	Y17	Z17	X18	Y18	Z18	X19	Y19	Z19	X20	Y20	Z20	X21	Y21	Z21	X22	Y22	Z22	X23	Y23	Z23	X24	Y24	Z24	X25	Y25	Z25	X26	Y26	Z26	X27	Y27	Z27	X28	Y28	Z28	X29	Y29	Z29	X30	Y30	Z30	X31	Y31	Z31	X32	Y32	Z32	X33	Y33	Z33	X34	Y34	Z34	X35	Y35	Z35	X36	Y36	Z36	X37	Y37	Z37	X38	Y38	Z38	X39	Y39	Z39	X40	Y40	Z40	X41	Y41	Z41	X42	Y42	Z42	X43	Y43	Z43	X44	Y44	Z44	X45	Y45	Z45	X46	Y46	Z46	X47	Y47	Z47	X48	Y48	Z48	

1	0	-700.3	1760.5	286.15	-903.37	1549.9	556.73	-987.39	1568	104.81	-938.23	1096.5	531.27	-918.43	1036.7	179.23	-1151.5	1098.7	394.49	-1134.9	1083.5	265.83	-1161.5	1062.6	328.87	-985.04	1162.5	137.88	-956	1194.4	539.1	-967.18	951.12	136.82	-1016.6	991.21	565.21	-1114.6	595.73	492.44	NaN	NaN	NaN	-822.23	575.88	373.2	-826.58	571.67	218.27	-1068.3	64.836	372.77	-460.19	204.37	271.26	-1148	53.673	328.53	-520.97	145.15	327.63	-540.44	123.87	195.64	-1173.9	45.25	463.35	-1261.5	147.26	443.99	-1256.3	158.42	343.02	-671.89	161.37	305.08	-694.21	143.25	237.33	-748.96	57.992	275.43	-1369.2	145.22	387.9	-725.19	36.1	244.04	-1368.7	119.35	420.34	-717.02	39.191	308.27	-1364.6	117.33	359.46	-1252.1	449.58	481.56	-1188	422.63	503.71	-1203.4	350.53	483.86	-1255.1	367.04	469.73	-1088.2	863.45	536.12	-1016.8	866.64	548.6	-1032.6	776.9	536.38	-1100.2	775.33	522.32	-765.22	519.83	226.53	-813.94	495.77	214.32	-792.52	436.59	221.21	-749.11	465.72	233.67	-859.64	829.74	189.72	-922.27	813.04	157.88	-892.15	745.58	178.03	-836.19	761.48	206.59
2	0.0041784	-696.27	1759.5	285.46	-899.58	1549.1	556.21	-983.43	1566.8	104.27	-934.27	1095.7	531.03	-914.15	1035.6	179.11	-1147.5	1098	393.8	-1130.7	1082.6	265.19	-1157.6	1061.8	328.18	-980.27	1161.4	137.6	-952.56	1193.7	538.77	-962.78	950.02	136.68	-1013.2	990.56	564.98	-1112.1	595.35	492.45	NaN	NaN	NaN	-818.13	574.95	373.72	-824.15	570.99	218.26	-1068.3	64.852	372.79	-455.24	204.12	272.12	-1147.9	53.672	328.49	-515.97	144.67	328.17	-535.36	123.5	196.53	-1173.8	45.265	463.36	-1261.1	147.54	444.03	-1255.8	158.69	343.04	-666.88	160.75	305.84	-689.16	142.51	238.07	-743.76	57.309	276.19	-1368.8	145.86	387.93	-719.94	35.471	244.8	-1368.3	119.94	420.37	-711.81	38.531	309.03	-1364.3	117.95	359.5	-1250.2	449.83	481.6	-1186.3	422.55	503.75	-1201.9	350.58	483.94	-1253.5	367.38	470.05	-1085	863.04	535.85	-1013.7	866.04	548.5	-1029.7	776.34	536.34	-1097.2	774.93	522.16	-760.81	518.96	227.1	-809.58	494.81	214.87	-788.03	435.65	221.81	-744.68	464.9	234.27	-855.34	828.71	189.92	-917.92	811.98	158.05	-887.83	744.55	178.34	-831.94	760.43	206.91
3	0.0083567	-692.07	1758.4	284.74	-895.62	1548.3	555.67	-979.29	1565.5	103.7	-930.15	1095	530.78	-909.67	1034.5	179	-1143.4	1097.2	393.07	-1126.4	1081.7	264.53	-1153.4	1060.9	327.46	-975.27	1160.2	137.31	-948.95	1192.9	538.43	-958.19	948.87	136.55	-1009.6	989.88	564.75	-1109.5	594.96	492.46	NaN	NaN	NaN	-813.86	573.98	374.25	-821.51	570.28	218.26	-1068.3	64.869	372.81	-450.14	203.76	273.01	-1147.8	53.669	328.45	-510.83	144.1	328.75	-530.17	123.05	197.45	-1173.7	45.28	463.37	-1260.6	147.84	444.07	-1255.3	158.98	343.06	-661.74	160.06	306.62	-684	141.71	238.83	-738.46	56.629	276.99	-1368.5	146.54	387.96	-714.61	34.836	245.58	-1368	120.57	420.41	-706.52	37.855	309.81	-1364	118.62	359.54	-1248.3	450.1	481.64	-1184.4	422.46	503.79	-1200.5	350.63	484.02	-1251.9	367.74	470.36	-1081.7	862.61	535.58	-1010.4	865.41	548.4	-1026.6	775.75	536.3	-1094.1	774.52	522	-756.24	518.04	227.67	-805.05	493.8	215.42	-783.39	434.67	222.41	-740.09	464.02	234.89	-850.85	827.63	190.14	-913.39	810.88	158.23	-883.32	743.47	178.66	-827.51	759.34	207.24
4	0.012535	-687.73	1757.3	284	-891.52	1547.4	555.09	-975	1564.1	103.11	-925.9	1094.2	530.53	-905.03	1033.3	178.88	-1139.1	1096.4	392.32	-1121.9	1080.8	263.85	-1149.1	1060.1	326.72	-970.08	1159	137.01	-945.17	1192.1	538.07	-953.44	947.67	136.42	-1005.9	989.18	564.5	-1106.8	594.54	492.48	NaN	NaN	NaN	-809.44	572.98	374.77	-818.68	569.52	218.27	-1068.3	64.887	372.82	-444.93	203.24	273.91	-1147.7	53.662	328.41	-505.61	143.42	329.36	-524.92	122.51	198.38	-1173.5	45.295	463.39	-1260.2	148.15	444.12	-1254.7	159.28	343.08	-656.54	159.32	307.42	-678.78	140.86	239.61	-733.13	55.964	277.81	-1368.1	147.25	387.99	-709.27	34.207	246.38	-1367.6	121.23	420.44	-701.2	37.172	310.62	-1363.7	119.31	359.58	-1246.2	450.37	481.69	-1182.5	422.37	503.83	-1198.9	350.68	484.12	-1250.2	368.1	470.67	-1078.3	862.15	535.3	-1007	864.76	548.31	-1023.5	775.14	536.27	-1090.9	774.08	521.83	-751.55	517.07	228.26	-800.39	492.76	215.98	-778.62	433.65	223.02	-735.38	463.1	235.5	-846.21	826.51	190.36	-908.7	809.74	158.41	-878.67	742.36	178.98	-822.93	758.2	207.58
5	0.016713	-683.27	1756.2	283.24	-887.29	1546.5	554.49	-970.58	1562.7	102.49	-921.54	1093.3	530.28	-900.26	1032.1	178.77	-1134.7	1095.5	391.55	-1117.2	1079.8	263.15	-1144.6	1059.2	325.97	-964.73	1157.7	136.7	-941.24	1191.3	537.71	-948.54	946.44	136.29	-1002.1	988.45	564.26	-1103.9	594.11	492.5	NaN	NaN	NaN	-804.89	571.97	375.29	-815.64	568.73	218.29	-1068.2	64.904	372.83	-439.67	202.55	274.82	-1147.6	53.653	328.38	-500.37	142.61	330	-519.67	121.85	199.31	-1173.4	45.308	463.41	-1259.7	148.49	444.17	-1254.2	159.61	343.11	-651.33	158.52	308.22	-673.57	139.95	240.38	-727.84	55.329	278.65	-1367.7	148	388.03	-703.98	33.591	247.2	-1367.2	121.92	420.48	-695.93	36.49	311.45	-1363.3	120.04	359.63	-1244.1	450.65	481.74	-1180.6	422.28	503.88	-1197.3	350.73	484.23	-1248.4	368.47	470.97	-1074.8	861.68	535.02	-1003.5	864.09	548.21	-1020.2	774.5	536.24	-1087.6	773.63	521.66	-746.75	516.07	228.83	-795.63	491.69	216.53	-773.78	432.6	223.62	-730.57	462.13	236.11	-841.43	825.35	190.59	-903.89	808.57	158.61	-873.89	741.21	179.31	-818.21	757.04	207.93
6	0.020892	-678.71	1755	282.47	-882.96	1545.6	553.87	-966.06	1561.3	101.84	-917.09	1092.5	530.04	-895.36	1030.9	178.65	-1130.2	1094.7	390.77	-1112.5	1078.8	262.44	-1140	1058.2	325.2	-959.23	1156.5	136.38	-937.18	1190.5	537.33	-943.53	945.18	136.17	-998.13	987.71	564	-1101	593.66	492.52	NaN	NaN	NaN	-800.23	570.94	375.8	-812.4	567.9	218.33	-1068.2	64.922	372.84	-434.39	201.67	275.73	-1147.5	53.64	328.36	-495.16	141.67	330.66	-514.47	121.08	200.23	-1173.3	45.322	463.43	-1259.1	148.85	444.23	-1253.6	159.95	343.15	-646.15	157.65	309.03	-668.41	138.98	241.16	-722.64	54.736	279.5	-1367.3	148.78	388.07	-698.81	33	248.03	-1366.8	122.64	420.53	-690.77	35.82	312.28	-1362.9	120.8	359.68	-1241.9	450.94	481.8	-1178.5	422.2	503.94	-1195.6	350.78	484.35	-1246.6	368.84	471.25	-1071.2	861.19	534.74	-999.88	863.4	548.12	-1016.8	773.85	536.22	-1084.2	773.17	521.49	-741.89	515.03	229.4	-790.8	490.59	217.08	-768.88	431.52	224.22	-725.7	461.12	236.71	-836.56	824.17	190.83	-898.97	807.38	158.8	-869.01	740.03	179.63	-813.4	755.84	208.28
7	0.02507	-674.07	1753.9	281.69	-878.55	1544.6	553.22	-961.43	1559.8	101.17	-912.58	1091.6	529.79	-890.37	1029.7	178.55	-1125.6	1093.8	389.98	-1107.7	1077.8	261.72	-1135.4	1057.3	324.43	-953.62	1155.2	136.04	-933	1189.6	536.95	-938.42	943.9	136.06	-994.12	986.95	563.75	-1098.1	593.2	492.55	NaN	NaN	NaN	-795.5	569.91	376.28	-808.96	567.05	218.38	-1068.2	64.939	372.85	-429.14	200.59	276.63	-1147.4	53.623	328.34	-490.01	140.59	331.33	-509.38	120.18	201.14	-1173.2	45.334	463.45	-1258.6	149.22	444.29	-1253	160.32	343.2	-641.05	156.73	309.82	-663.35	137.97	241.91	-717.59	54.199	280.34	-1366.9	149.59	388.11	-693.8	32.446	248.85	-1366.4	123.39	420.57	-685.76	35.171	313.11	-1362.5	121.59	359.75	-1239.6	451.24	481.86	-1176.4	422.11	504	-1193.9	350.84	484.49	-1244.7	369.22	471.51	-1067.5	860.68	534.46	-996.21	862.69	548.03	-1013.4	773.19	536.2	-1080.7	772.68	521.32	-736.98	513.97	229.95	-785.92	489.49	217.6	-763.96	430.43	224.8	-720.8	460.08	237.29	-831.6	822.96	191.07	-893.98	806.16	159	-864.05	738.83	179.95	-808.49	754.63	208.63
8	0.029249	-669.36	1752.7	280.89	-874.06	1543.7	552.55	-956.74	1558.3	100.48	-908.04	1090.7	529.55	-885.3	1028.4	178.45	-1120.9	1092.9	389.19	-1102.8	1076.8	260.99	-1130.7	1056.4	323.66	-947.9	1153.9	135.71	-928.71	1188.8	536.57	-933.23	942.61	135.96	-990.05	986.18	563.5	-1095	592.73	492.59	NaN	NaN	NaN	-790.7	568.88	376.74	-805.32	566.19	218.46	-1068.2	64.955	372.85	-423.95	199.28	277.51	-1147.4	53.604	328.33	-484.97	139.36	332.02	-504.42	119.15	202.02	-1173.1	45.346	463.47	-1258.1	149.62	444.36	-1252.4	160.7	343.25	-636.08	155.74	310.61	-658.44	136.91	242.65	-712.73	53.73	281.18	-1366.4	150.43	388.15	-689.02	31.938	249.67	-1366	124.17	420.62	-680.96	34.555	313.93	-1362	122.41	359.81	-1237.3	451.54	481.93	-1174.3	422.03	504.07	-1192.2	350.9	484.63	-1242.9	369.6	471.76	-1063.7	860.17	534.18	-992.46	861.97	547.94	-1009.9	772.51	536.18	-1077.2	772.19	521.16	-732.05	512.89	230.49	-781.01	488.39	218.11	-759.04	429.33	225.36	-715.89	459.01	237.84	-826.58	821.74	191.31	-888.92	804.94	159.21	-859.04	737.62	180.26	-803.53	753.4	208.97
